HIERARCHY
ROOT Hips
{
  OFFSET 44.0924 100.728 -271.026
  CHANNELS 6 Xposition Yposition Zposition Zrotation Xrotation Yrotation
  JOINT ToSpine
  {
    OFFSET -0.0105055 1.38907 -7.13956
    CHANNELS 3 Zrotation Xrotation Yrotation
    JOINT Spine
    {
      OFFSET 0.0105055 10 1
      CHANNELS 3 Zrotation Xrotation Yrotation
      JOINT Spine1
      {
        OFFSET 0 12 1.60637
        CHANNELS 3 Zrotation Xrotation Yrotation
        JOINT Neck
        {
          OFFSET 0 27 2.26658
          CHANNELS 3 Zrotation Xrotation Yrotation
          JOINT Head
          {
            OFFSET 0 9 2.12705
            CHANNELS 3 Zrotation Xrotation Yrotation
            End Site
            {
              OFFSET 0 11 2
            }
          }
        }
        JOINT LeftShoulder
        {
          OFFSET 8 19.6109 2.86452
          CHANNELS 3 Zrotation Xrotation Yrotation
          JOINT LeftArm
          {
            OFFSET 12 1 0.681055
            CHANNELS 3 Zrotation Xrotation Yrotation
            JOINT LeftForeArm
            {
              OFFSET 19 0 -1.52608
              CHANNELS 3 Zrotation Xrotation Yrotation
              JOINT LeftHand
              {
                OFFSET 23 0 0
                CHANNELS 3 Zrotation Xrotation Yrotation
                End Site
                {
                  OFFSET 10 0 0
                }
              }
            }
          }
        }
        JOINT RightShoulder
        {
          OFFSET -8 19.6109 2.86452
          CHANNELS 3 Zrotation Xrotation Yrotation
          JOINT RightArm
          {
            OFFSET -12 1 0.681055
            CHANNELS 3 Zrotation Xrotation Yrotation
            JOINT RightForeArm
            {
              OFFSET -19 0 -1.52608
              CHANNELS 3 Zrotation Xrotation Yrotation
              JOINT RightHand
              {
                OFFSET -23 0 0
                CHANNELS 3 Zrotation Xrotation Yrotation
                End Site
                {
                  OFFSET -10 0 0
                }
              }
            }
          }
        }
      }
    }
  }
  JOINT LeftUpLeg
  {
    OFFSET 9 -7.17245 0
    CHANNELS 3 Zrotation Xrotation Yrotation
    JOINT LeftLeg
    {
      OFFSET 0 -44.1113 0
      CHANNELS 3 Zrotation Xrotation Yrotation
      JOINT LeftFoot
      {
        OFFSET 0 -36.1829 0
        CHANNELS 3 Zrotation Xrotation Yrotation
        JOINT LeftToeBase
        {
          OFFSET 0 -4.84184 13
          CHANNELS 3 Zrotation Xrotation Yrotation
          End Site
          {
            OFFSET 0 1 6
          }
        }
      }
    }
  }
  JOINT RightUpLeg
  {
    OFFSET -9 -7.17245 0
    CHANNELS 3 Zrotation Xrotation Yrotation
    JOINT RightLeg
    {
      OFFSET 0 -44.0551 0
      CHANNELS 3 Zrotation Xrotation Yrotation
      JOINT RightFoot
      {
        OFFSET 0 -36.1469 0
        CHANNELS 3 Zrotation Xrotation Yrotation
        JOINT RightToeBase
        {
          OFFSET 0 -4.92256 13
          CHANNELS 3 Zrotation Xrotation Yrotation
          End Site
          {
            OFFSET 0 1 6
          }
        }
      }
    }
  }
}
MOTION
Frames:	12
Frame Time:	0.0333333
44.0721 100.713 -271.021 0.806435 -2.00327 -0.092329 0 0 0 2.84532 -0.979355 0.675302 -4.2586 4.97773 1.35453 6.80659 1.6106 -2.83026 -3.07283 1.61958 0.0494787 -31.5284 3.56313 -5.96102 -40.2943 27.4073 -15.155 -5.8708 -11.4845 -3.38475 -5.02567 0.678682 -15.4102 25.933 5.68447 14.0816 51.2114 16.1165 3.65622 2.24843 1.10503 12.4279 2.15903 0.0691781 4.21356 -0.694011 3.8936 6.24107 -1.25938 4.65302 -7.30577 4.86687 -6.73707 0.286564 -0.0797956 -2.21136 1.01235 0.742237 3.63529 -6.5737 1.0335 3.15885 -3.79915 -15.9514 -0.518891 -0.0727588 4.1056 -15.729 -8.07008 
44.0096 100.675 -271.01 0.826199 -1.96625 0.0196646 0 0 0 2.88104 -1.00932 0.621191 -4.52734 4.99593 1.34131 7.2005 1.68209 -2.90184 -3.1311 1.37485 0.112443 -31.2971 3.5399 -5.95783 -40.486 27.1784 -15.0763 -5.77698 -11.129 -3.42356 -4.83006 0.686946 -15.8732 26.4329 5.77541 14.0981 50.7808 16.3733 3.70937 2.27505 1.15305 12.3805 2.1377 0.069199 3.97155 -0.600344 3.65164 6.35464 -1.33695 5.11485 -7.45832 5.05865 -6.96799 0.308104 -0.0197455 -2.16364 0.737994 0.793572 3.29272 -6.34912 0.965301 3.81904 -3.97825 -16.2572 -0.547748 -0.0783461 4.22817 -16.3608 -8.24719 
43.9976 100.709 -271.037 0.882469 -1.84988 -0.0503841 0 0 0 3.04919 -0.808643 0.59782 -4.68828 4.69287 1.34414 6.78691 1.94503 -2.61121 -2.63022 0.939489 0.155911 -31.8671 3.49258 -5.69154 -39.7722 27.6777 -14.8849 -5.88362 -11.9246 -4.00747 -6.03575 0.604763 -13.0632 26.7679 5.88013 14.2398 50.3475 16.5833 3.65886 2.29743 1.12208 12.4311 2.24879 0.0727059 3.63573 -0.699592 3.44935 6.20616 -1.2564 5.18792 -6.68503 6.00191 -7.2519 0.381142 0.519555 -1.08051 -2.03883 0.730114 3.12714 -6.32333 0.92355 3.87414 -3.79184 -15.7725 -0.598599 -0.0823895 4.08798 -15.6132 -7.65692 
43.9607 100.76 -271.077 0.889678 -1.63649 -0.497929 0 0 0 3.39037 -0.968132 0.943125 -5.03087 4.82328 1.75561 6.76155 1.72415 -2.72572 -2.72347 1.03088 0.0473798 -31.6699 3.49392 -5.74334 -39.8745 27.5297 -15.4195 -6.15799 -14.3605 -3.42812 -10.4789 0.267684 -2.48399 26.4673 5.81541 14.2011 50.6433 15.886 3.90031 2.17242 1.53039 12.1028 2.68417 0.086193 3.68155 -0.823793 3.00714 5.95062 -0.896183 5.54955 -5.47879 6.41497 -7.9593 0.446465 1.44796 1.2039 -6.10199 0.784275 2.7508 -6.07718 0.719993 4.06253 -3.84393 -15.2087 -1.07595 -0.143978 3.9525 -14.9524 -7.72288 
43.9105 100.733 -271.001 0.832497 -1.72016 -0.471636 0 0 0 3.53342 -1.07133 0.948845 -5.31597 5.15624 1.81435 7.43159 1.65279 -2.92981 -3.23076 0.861425 0.164113 -31.1056 3.46429 -5.80285 -40.2534 27.2573 -15.7163 -5.94527 -13.5901 -3.11457 -10.0555 0.319438 -3.62959 26.767 5.93574 14.4052 50.3336 15.5514 4.46891 2.43887 1.54052 11.0899 2.51715 0.0938286 4.26623 -0.699375 2.98946 6.04773 -0.890187 5.90314 -5.74165 6.26266 -7.97238 0.436789 1.33074 0.562655 -5.61841 0.89314 2.81975 -5.9582 0.708961 4.23106 -4.17608 -15.647 -1.21004 -0.16615 4.05894 -15.4731 -7.68596 
43.886 100.724 -270.905 0.974479 -1.70011 -0.329841 0 0 0 3.5012 -1.04769 0.846131 -5.50693 5.09401 1.74717 7.44176 1.64442 -2.91817 -2.94506 1.03305 0.116315 -30.818 3.45738 -5.8561 -40.8151 26.8008 -15.2976 -5.7954 -13.1996 -3.24679 -10.1124 0.309408 -3.49576 27.017 6.03763 14.5779 50.1372 15.8088 4.18566 2.61497 0.56018 11.3715 2.43841 0.0898504 4.22066 -0.831864 2.98448 5.96903 -0.8344 5.99677 -5.88818 6.10191 -8.13555 0.434396 1.37483 0.881148 -5.82112 0.733052 2.88132 -6.08677 0.801202 4.22223 -4.17437 -16.0502 -1.15655 -0.163048 4.122 -15.7711 -7.57004 
43.8124 100.718 -270.777 0.905555 -1.63956 -0.204362 0 0 0 3.46046 -0.880327 0.866077 -5.17379 4.58029 1.68465 6.92037 2.015 -2.82075 -2.61343 1.04846 -0.00622424 -30.8769 3.54776 -6.08472 -41.3145 26.4645 -14.5941 -5.70737 -12.9135 -3.36779 -10.2117 0.322477 -3.60843 26.4999 5.89205 14.4137 50.7501 15.4995 4.14336 2.50747 1.16376 11.0628 2.37772 0.0859385 4.13584 -0.674499 3.07897 6.07946 -0.933089 5.81708 -6.09757 6.20411 -8.19012 0.444624 1.318 0.928237 -5.59395 0.873575 2.91887 -6.03631 0.783563 4.22568 -4.19051 -15.738 -1.28442 -0.177533 4.07406 -15.5739 -8.05159 
43.7608 100.721 -270.709 1.00145 -1.43852 -0.220496 0 0 0 3.28536 -0.989713 0.885339 -4.97351 4.54608 1.66182 6.72595 1.90064 -2.74638 -2.57684 1.08558 -0.00796551 -31.3909 3.51368 -5.86463 -40.7723 26.6118 -14.6889 -5.75068 -12.8808 -3.29783 -10.1449 0.338186 -3.80841 26.3393 5.79894 14.2177 50.7246 15.762 4.40557 2.47063 1.61404 11.1013 2.14615 0.0753797 4.02449 -0.771429 2.86044 5.94842 -0.813739 5.91006 -5.97526 6.02772 -8.11763 0.4281 1.29265 0.702842 -5.47248 0.814187 2.73252 -6.02526 0.780234 4.27184 -4.2179 -15.6881 -1.41897 -0.195531 4.05745 -15.4848 -7.9571 
43.724 100.719 -270.614 1.02058 -1.46864 -0.332152 0 0 0 3.25393 -0.535168 0.843086 -4.83086 3.97469 1.59685 6.48755 2.21812 -2.62804 -2.47539 0.838968 0.0207865 -31.9487 3.49449 -5.67699 -40.3126 26.7547 -14.3698 -5.79652 -13.3124 -3.46791 -10.2288 0.337094 -3.76452 26.5195 5.83465 14.2314 50.4867 15.9936 4.30507 2.59042 1.28969 11.0979 2.39336 0.0847678 4.06316 -0.804424 3.13691 5.94829 -0.846439 5.53042 -5.69357 6.08959 -8.1024 0.431701 1.35033 0.65986 -5.70588 0.850515 2.74994 -5.97349 0.662634 4.44445 -4.16377 -15.725 -1.61318 -0.22271 4.0408 -15.4068 -8.03011 
43.6492 100.712 -270.514 0.955982 -1.46685 -0.329158 0 0 0 3.72066 -1.16333 0.907776 -5.42476 5.12133 1.79669 6.88847 1.32341 -2.81873 -2.60348 1.18703 -0.0495045 -31.2963 3.50617 -5.86802 -40.6963 26.3926 -14.7852 -5.7428 -13.8277 -3.4999 -10.11 0.326721 -3.69244 26.4821 5.74171 13.9705 50.4135 16.1306 5.0107 2.53566 1.61721 11.0893 2.01272 0.0727653 4.1446 -0.622793 3.18447 6.11835 -0.949507 5.59828 -5.94436 6.13267 -8.11649 0.435532 1.4219 0.731978 -6.00417 0.941681 2.75789 -5.96823 0.712415 4.58009 -4.37096 -15.5403 -1.92692 -0.262976 3.96878 -15.0349 -7.76286 
43.5087 100.707 -270.38 0.987167 -1.42474 -0.101178 0 0 0 3.59584 -1.39592 0.812754 -5.38355 5.3999 1.70286 7.35506 1.43401 -2.82276 -3.17674 0.971616 0.223872 -30.8248 3.49589 -5.95989 -41.2401 25.5485 -14.9903 -5.55694 -12.8126 -2.75855 -10.1857 0.370011 -4.14931 26.6761 5.97313 14.5644 50.2166 15.9044 4.82525 2.6275 1.08606 11.0105 2.21643 0.0738629 3.81726 -0.530709 3.30799 6.16068 -0.988763 5.41796 -6.10878 6.03094 -8.26936 0.436306 1.43576 0.953294 -6.07374 1.05613 2.90478 -5.92178 0.6477 4.4148 -4.6379 -15.4638 -2.04078 -0.277198 3.93874 -14.8789 -7.57823 
43.3071 100.675 -270.206 0.87073 -1.58506 0.0876478 0 0 0 3.2158 -0.659963 0.824632 -4.5255 4.65822 1.49954 6.22127 1.45577 -2.64093 -2.43879 1.3076 -0.109264 -32.0816 3.48802 -5.62766 -40.1325 26.297 -14.765 -5.64422 -12.5109 -3.16513 -10.3497 0.367306 -4.05348 26.2207 5.74213 14.1071 50.5782 15.7839 4.71888 2.58986 1.24706 10.9252 2.29885 0.0802087 3.97948 -0.178944 3.331 6.41866 -0.995345 6.03256 -6.6431 5.81013 -8.66687 0.440724 1.41055 1.124 -5.98242 1.32611 3.27364 -5.79397 0.714901 4.33774 -4.92725 -15.6705 -2.20216 -0.303031 3.93647 -14.8748 -7.76996 
